<?xml version="1.0" encoding="utf-8"?>
<svg xmlns="http://www.w3.org/2000/svg" version="1.1" viewBox="0 0 1295 939">
<g id="icon">
<path fill="#3db1e2" opacity="1.00" d=" M 635.59 0.00 L 658.55 0.00 C 693.32 1.60 727.86 9.24 759.74 23.29 C 826.35 52.19 880.67 108.11 907.51 175.60 C 935.48 244.64 934.21 324.93 903.90 392.99 C 878.35 451.32 832.19 500.29 775.48 529.24 C 736.18 549.62 691.92 560.08 647.69 560.16 C 647.81 532.84 647.69 505.51 647.75 478.18 C 676.29 478.07 704.84 471.92 730.73 459.83 C 764.01 444.46 792.82 419.59 812.97 388.96 C 834.61 356.35 846.19 317.14 845.58 277.99 C 845.41 234.65 830.17 191.61 803.27 157.66 C 781.46 129.77 751.98 107.95 718.95 95.21 C 680.01 80.03 636.19 77.78 595.87 88.72 C 559.27 98.50 525.71 119.21 500.39 147.37 C 469.14 181.77 450.64 227.49 449.48 273.98 C 448.75 300.93 451.99 328.41 462.43 353.45 C 475.83 386.13 499.84 412.82 524.00 437.96 C 538.43 452.55 552.92 467.07 567.82 481.17 C 594.48 507.26 621.37 533.12 647.27 559.97 C 647.25 598.44 647.31 636.92 647.24 675.39 C 635.66 664.45 624.45 653.11 612.98 642.04 C 583.34 613.33 553.30 585.05 523.57 556.44 C 497.24 530.76 470.88 505.01 446.87 477.11 C 424.15 450.61 403.42 421.94 389.30 389.87 C 370.35 347.46 364.60 299.99 368.58 253.96 C 372.16 215.12 383.91 177.03 403.09 143.06 C 427.87 98.73 465.00 61.43 509.17 36.38 C 547.61 14.34 591.39 2.13 635.59 0.00 Z"/>
<path fill="#3db1e2" opacity="1.00" d=" M 635.12 186.24 C 653.91 183.73 673.44 187.04 690.33 195.66 C 705.27 203.22 718.11 214.87 727.14 228.95 C 737.82 245.48 743.07 265.41 741.94 285.05 C 741.10 303.29 734.64 321.16 723.87 335.88 C 713.11 350.58 698.05 362.15 680.95 368.50 C 663.25 375.32 643.47 376.38 625.07 371.94 C 607.77 367.74 591.69 358.55 579.40 345.66 C 566.96 332.88 558.32 316.43 554.79 298.95 C 550.61 277.75 553.51 255.04 563.80 235.94 C 577.67 209.13 605.14 189.93 635.12 186.24 Z"/>
</g>
<g id="wordmark">
<path fill="#472681" opacity="1.00" d=" M 42.61 745.65 C 56.46 739.90 72.57 738.87 86.67 744.35 C 93.61 746.97 99.82 751.63 103.75 757.98 C 103.71 753.69 103.74 749.41 103.75 745.13 C 116.87 745.13 130.00 745.10 143.13 745.14 C 143.12 782.76 143.13 820.39 143.13 858.02 C 143.03 873.52 143.62 889.75 137.29 904.27 C 133.92 911.99 127.75 918.12 121.04 923.03 C 107.43 932.78 90.85 937.75 74.27 939.00 L 62.52 939.00 C 48.24 938.01 33.86 934.17 21.98 925.93 C 11.15 918.49 2.20 907.30 0.00 894.08 L 0.00 893.86 C 16.43 893.85 32.85 893.97 49.28 893.80 C 51.78 899.37 56.72 903.93 62.92 904.79 C 71.84 905.88 81.49 905.06 89.28 900.21 C 95.80 896.18 100.14 889.26 101.93 881.91 C 103.47 876.18 103.54 870.22 103.47 864.34 C 96.62 876.44 82.67 883.16 69.10 883.69 C 43.05 884.81 17.65 868.63 6.83 845.05 C 2.77 836.46 0.61 827.06 0.00 817.60 L 0.00 808.37 C 0.63 798.08 2.96 787.84 7.55 778.59 C 14.71 763.83 27.43 751.86 42.61 745.65 M 64.20 779.29 C 53.13 782.15 43.94 791.13 40.74 802.09 C 36.25 817.02 42.75 834.89 56.76 842.29 C 68.80 849.29 85.68 846.46 94.25 835.31 C 100.80 827.20 102.64 816.14 101.11 806.02 C 99.88 797.33 95.57 788.80 88.30 783.68 C 81.45 778.71 72.36 777.17 64.20 779.29 Z"/>
<path fill="#472681" opacity="1.00" d=" M 183.84 750.83 C 197.53 741.73 214.97 738.19 231.03 742.00 C 241.82 744.58 252.65 750.09 258.80 759.66 C 258.69 754.80 258.73 749.95 258.76 745.09 C 272.59 745.15 286.42 745.12 300.26 745.10 C 300.27 789.86 300.23 834.62 300.28 879.38 C 286.43 879.39 272.59 879.40 258.74 879.38 C 258.75 874.46 258.70 869.54 258.78 864.63 C 254.16 873.34 245.09 878.52 235.92 881.24 C 218.44 886.62 198.52 884.03 183.31 873.76 C 172.50 866.51 164.26 855.77 159.33 843.78 C 152.86 828.14 151.61 810.51 155.08 794.00 C 158.74 776.68 168.93 760.57 183.84 750.83 M 219.45 778.64 C 202.94 781.51 191.58 798.68 192.74 814.91 C 193.94 825.18 199.47 835.04 207.99 840.99 C 217.83 847.85 231.65 848.12 241.93 842.06 C 255.05 834.10 262.00 816.73 257.17 802.03 C 254.73 794.12 249.47 787.03 242.36 782.74 C 235.57 778.60 227.24 777.24 219.45 778.64 Z"/>
<path fill="#472681" opacity="1.00" d=" M 367.22 743.31 C 378.01 739.60 390.39 739.18 400.90 744.06 C 409.54 748.18 416.07 755.81 420.18 764.32 C 429.42 749.13 447.35 740.15 464.96 740.49 C 476.99 740.95 489.76 743.78 498.90 752.10 C 503.97 757.21 508.37 763.22 510.76 770.08 C 514.22 780.35 513.97 791.34 514.25 802.04 C 514.27 827.82 514.25 853.60 514.26 879.38 C 500.42 879.41 486.58 879.38 472.74 879.40 C 472.71 854.26 472.81 829.13 472.69 803.99 C 472.50 795.78 471.44 785.99 464.01 781.00 C 455.55 776.16 442.76 777.71 437.35 786.41 C 433.68 792.22 433.22 799.32 433.12 806.00 C 433.13 830.45 433.10 854.91 433.14 879.36 C 419.30 879.43 405.45 879.37 391.60 879.39 C 391.58 853.62 391.66 827.85 391.57 802.09 C 391.25 794.51 389.61 785.76 382.97 781.12 C 374.12 775.58 360.88 778.46 355.32 787.41 C 351.19 793.79 350.02 801.58 350.00 809.05 C 350.03 832.50 349.98 855.95 350.03 879.39 C 336.88 879.38 323.74 879.40 310.60 879.38 C 310.63 834.62 310.57 789.86 310.62 745.10 C 322.92 745.13 335.21 745.14 347.50 745.09 C 347.57 749.84 347.45 754.60 347.57 759.36 C 352.16 752.05 359.00 746.14 367.22 743.31 Z"/>
<path fill="#472681" opacity="1.00" d=" M 565.69 746.74 C 578.20 740.83 592.59 739.00 606.18 741.71 C 623.52 744.93 639.23 755.25 649.64 769.41 C 661.21 785.00 666.31 805.29 663.26 824.48 C 630.40 824.60 597.54 824.45 564.68 824.56 C 565.89 832.61 570.23 840.33 577.15 844.80 C 585.41 850.38 596.14 850.80 605.54 848.31 C 610.91 846.88 615.75 843.67 619.12 839.24 C 632.72 839.24 646.32 839.22 659.92 839.25 C 654.02 854.24 642.82 866.87 629.00 875.04 C 616.81 881.57 602.68 884.48 588.90 883.52 C 556.64 880.95 528.06 854.17 523.83 822.02 C 519.29 791.30 537.80 759.63 565.69 746.74 M 572.80 782.88 C 569.15 786.89 566.16 791.85 565.36 797.27 C 584.28 797.21 603.20 797.26 622.12 797.25 C 620.11 788.20 613.84 779.94 605.08 776.55 C 594.34 772.46 580.88 774.29 572.80 782.88 Z"/>
<path fill="#472681" opacity="1.00" d=" M 684.65 756.62 C 703.77 738.01 736.01 735.20 758.26 749.79 C 769.30 757.05 775.50 769.93 776.45 782.89 C 763.34 782.88 750.24 782.84 737.13 782.92 C 736.75 779.69 735.73 776.08 732.63 774.46 C 726.47 771.26 717.56 772.50 713.55 778.52 C 711.46 781.45 712.78 785.47 715.20 787.78 C 719.37 791.88 725.09 793.80 730.51 795.67 C 742.04 799.20 754.07 802.08 764.30 808.75 C 770.57 812.75 775.88 818.59 778.29 825.72 C 782.56 838.35 779.92 853.07 771.51 863.43 C 761.52 875.86 745.69 882.45 730.07 883.74 C 714.37 884.95 697.62 880.95 685.63 870.37 C 676.70 862.63 671.91 851.11 670.73 839.53 C 684.00 839.16 697.29 839.51 710.57 839.35 C 711.23 842.85 712.52 846.48 715.50 848.69 C 721.42 853.16 730.85 852.64 735.92 847.08 C 739.54 842.97 738.46 836.04 734.11 832.88 C 728.41 828.68 721.46 826.75 715.00 824.06 C 705.95 820.22 696.23 817.63 688.15 811.84 C 680.67 806.74 674.35 799.13 672.85 789.99 C 670.79 777.77 675.83 765.09 684.65 756.62 Z"/>
<path fill="#472681" opacity="1.00" d=" M 840.07 742.66 C 865.71 736.06 894.72 745.00 912.21 764.89 C 919.64 773.35 924.87 783.79 926.85 794.91 C 914.26 794.83 901.66 794.90 889.07 794.87 C 885.67 787.15 878.51 781.41 870.36 779.38 C 861.46 777.22 851.31 777.26 843.50 782.62 C 829.50 791.82 824.92 811.56 831.39 826.63 C 835.28 836.14 843.97 843.62 854.13 845.54 C 867.31 848.03 882.82 842.87 889.11 830.35 C 901.78 830.39 914.45 830.40 927.12 830.34 C 923.28 848.09 911.45 863.62 896.00 872.97 C 876.57 884.93 851.13 887.45 830.23 877.81 C 808.80 868.23 793.38 847.12 789.83 824.03 C 787.13 807.46 790.04 789.95 798.42 775.36 C 807.30 759.57 822.49 747.30 840.07 742.66 Z"/>
<path fill="#472681" opacity="1.00" d=" M 996.51 741.73 C 1015.19 738.89 1035.35 741.93 1051.06 752.87 C 1066.16 763.24 1076.30 780.01 1079.76 797.88 C 1083.91 818.55 1078.64 840.92 1065.66 857.55 C 1055.99 870.11 1041.62 878.83 1026.08 881.87 C 1007.69 885.49 987.68 883.32 971.44 873.56 C 956.79 864.82 946.12 850.16 941.24 833.91 C 934.65 813.02 938.16 789.37 950.22 771.14 C 960.48 755.26 977.82 744.39 996.51 741.73 M 1001.33 779.48 C 988.59 782.92 979.21 794.96 978.03 807.97 C 976.17 822.09 983.67 837.36 996.95 843.15 C 1009.93 849.38 1026.63 844.55 1034.76 832.82 C 1045.10 818.76 1043.02 796.87 1029.41 785.65 C 1021.80 779.18 1010.96 776.70 1001.33 779.48 Z"/>
<path fill="#472681" opacity="1.00" d=" M 1152.74 741.76 C 1163.66 739.47 1175.63 739.98 1185.57 745.45 C 1193.37 749.61 1199.28 756.59 1203.48 764.26 C 1207.88 757.26 1213.77 751.10 1220.95 746.93 C 1234.59 738.93 1251.95 738.65 1266.48 744.40 C 1276.00 748.11 1283.41 755.75 1288.65 764.33 C 1294.15 773.70 1294.54 784.86 1295.00 795.43 L 1295.00 879.39 C 1281.71 879.38 1268.42 879.41 1255.13 879.38 C 1255.10 854.57 1255.12 829.77 1255.12 804.97 C 1255.05 798.96 1254.56 792.70 1251.71 787.29 C 1249.39 782.84 1244.92 779.64 1239.98 778.83 C 1233.21 777.69 1225.48 778.44 1220.16 783.18 C 1214.63 788.11 1213.09 795.89 1212.90 802.98 C 1212.86 828.45 1212.92 853.91 1212.88 879.38 C 1199.58 879.40 1186.28 879.40 1172.98 879.38 C 1172.99 859.91 1172.98 840.44 1172.99 820.98 C 1172.77 812.28 1173.61 803.48 1172.01 794.89 C 1170.85 788.17 1166.73 781.42 1159.92 779.35 C 1152.27 777.20 1142.95 778.35 1137.29 784.34 C 1131.92 790.15 1130.80 798.45 1130.65 806.04 C 1130.59 830.49 1130.65 854.94 1130.62 879.39 C 1117.33 879.38 1104.04 879.41 1090.75 879.38 C 1090.73 834.62 1090.73 789.86 1090.75 745.10 C 1103.16 745.14 1115.58 745.11 1127.99 745.12 C 1128.01 749.98 1128.02 754.83 1128.01 759.70 C 1133.10 750.41 1142.34 743.75 1152.74 741.76 Z"/>
</g>
</svg>