<?xml version="1.0" encoding="UTF-8"?>
<svg version="1.1" xmlns="http://www.w3.org/2000/svg" width="512" height="512">
<path d="M0 0 C60.72 0 121.44 0 184 0 C184 65.67 184 131.34 184 199 C123.28 199 62.56 199 0 199 C0 133.33 0 67.66 0 0 Z M42.90632534 33.66274166 C40.59482931 36.49676126 40.49958989 37.78176317 40.49879456 41.39613342 C40.48896042 42.49113663 40.47912628 43.58613983 40.46899414 44.71432495 C40.47866211 45.91082672 40.48833008 47.10732849 40.49829102 48.34008789 C40.49288803 49.60381729 40.48748505 50.86754669 40.48191833 52.16957092 C40.46796051 55.63240973 40.47913461 59.09475186 40.49562955 62.55756307 C40.50948117 66.18099307 40.50301996 69.80439427 40.49949646 73.42784119 C40.49679476 79.51162725 40.51026752 85.59521597 40.53344727 91.67895508 C40.56006885 98.71478687 40.56180025 105.75028895 40.5500589 112.78615385 C40.53928467 119.55329935 40.54546458 126.32032546 40.55961418 133.08746147 C40.56537591 135.96820329 40.56528991 138.8488578 40.56054878 141.72960091 C40.55489604 145.74968591 40.57408437 149.76927722 40.59594727 153.78930664 C40.59144562 154.98783264 40.58694397 156.18635864 40.58230591 157.42120361 C40.59221054 158.51338699 40.60211517 159.60557037 40.61231995 160.73085022 C40.61474984 161.68155427 40.61717974 162.63225832 40.61968327 163.61177158 C40.82361359 166.04691007 40.82361359 166.04691007 42.3289175 167.84104061 C44.09041614 169.31765312 44.09041614 169.31765312 47.125 168.8125 C48.548125 168.4103125 48.548125 168.4103125 50 168 C51.26823225 165.4635355 51.13441549 163.69152766 51.14717102 160.85110474 C51.15432632 159.76029602 51.16148163 158.6694873 51.16885376 157.54562378 C51.17154266 156.3435025 51.17423157 155.14138123 51.17700195 153.90283203 C51.18357315 152.64100098 51.19014435 151.37916992 51.19691467 150.07910156 C51.21432693 146.6121262 51.22487672 143.14516463 51.2331202 139.67815638 C51.2382692 137.51288138 51.24434493 135.34761068 51.25063133 133.18233871 C51.26968284 126.40989697 51.28391485 119.63746614 51.2922433 112.86500275 C51.3020209 105.04300518 51.32835388 97.22129021 51.36874419 89.39939225 C51.39888173 83.35602485 51.41370985 77.31273858 51.41702431 71.26929748 C51.41937725 67.65849074 51.42836883 64.04798592 51.45348549 60.43725967 C51.48104738 56.40997706 51.47694241 52.38332787 51.4699707 48.35595703 C51.48278076 47.15788422 51.49559082 45.9598114 51.50878906 44.72543335 C51.50184525 43.62898499 51.49490143 42.53253662 51.48774719 41.40286255 C51.49013555 40.45048265 51.4925239 39.49810276 51.49498463 38.51686287 C50.85362273 35.25571119 49.56909859 34.03897568 47 32 C44.81542836 31.79269696 44.81542836 31.79269696 42.90632534 33.66274166 Z M88.90632534 33.66274166 C86.59482931 36.49676126 86.49958989 37.78176317 86.49879456 41.39613342 C86.48896042 42.49113663 86.47912628 43.58613983 86.46899414 44.71432495 C86.47866211 45.91082672 86.48833008 47.10732849 86.49829102 48.34008789 C86.49288803 49.60381729 86.48748505 50.86754669 86.48191833 52.16957092 C86.46796051 55.63240973 86.47913461 59.09475186 86.49562955 62.55756307 C86.50948117 66.18099307 86.50301996 69.80439427 86.49949646 73.42784119 C86.49679476 79.51162725 86.51026752 85.59521597 86.53344727 91.67895508 C86.56006885 98.71478687 86.56180025 105.75028895 86.5500589 112.78615385 C86.53928467 119.55329935 86.54546458 126.32032546 86.55961418 133.08746147 C86.56537591 135.96820329 86.56528991 138.8488578 86.56054878 141.72960091 C86.55489604 145.74968591 86.57408437 149.76927722 86.59594727 153.78930664 C86.59144562 154.98783264 86.58694397 156.18635864 86.58230591 157.42120361 C86.59221054 158.51338699 86.60211517 159.60557037 86.61231995 160.73085022 C86.61474984 161.68155427 86.61717974 162.63225832 86.61968327 163.61177158 C86.82361359 166.04691007 86.82361359 166.04691007 88.3289175 167.84104061 C90.09041614 169.31765312 90.09041614 169.31765312 93.125 168.8125 C94.548125 168.4103125 94.548125 168.4103125 96 168 C97.26823225 165.4635355 97.13441549 163.69152766 97.14717102 160.85110474 C97.15432632 159.76029602 97.16148163 158.6694873 97.16885376 157.54562378 C97.17154266 156.3435025 97.17423157 155.14138123 97.17700195 153.90283203 C97.18357315 152.64100098 97.19014435 151.37916992 97.19691467 150.07910156 C97.21432693 146.6121262 97.22487672 143.14516463 97.2331202 139.67815638 C97.2382692 137.51288138 97.24434493 135.34761068 97.25063133 133.18233871 C97.26968284 126.40989697 97.28391485 119.63746614 97.2922433 112.86500275 C97.3020209 105.04300518 97.32835388 97.22129021 97.36874419 89.39939225 C97.39888173 83.35602485 97.41370985 77.31273858 97.41702431 71.26929748 C97.41937725 67.65849074 97.42836883 64.04798592 97.45348549 60.43725967 C97.48104738 56.40997706 97.47694241 52.38332787 97.4699707 48.35595703 C97.48278076 47.15788422 97.49559082 45.9598114 97.50878906 44.72543335 C97.50184525 43.62898499 97.49490143 42.53253662 97.48774719 41.40286255 C97.49013555 40.45048265 97.4925239 39.49810276 97.49498463 38.51686287 C96.85362273 35.25571119 95.56909859 34.03897568 93 32 C90.81542836 31.79269696 90.81542836 31.79269696 88.90632534 33.66274166 Z M134.89809227 33.16007233 C132.79513973 34.85363632 132.79513973 34.85363632 132.50222206 37.4066391 C132.5033116 38.36601631 132.50440113 39.32539352 132.50552368 40.31384277 C132.4971347 41.41588547 132.48874573 42.51792816 132.48010254 43.65336609 C132.49134155 44.86281387 132.50258057 46.07226166 132.51416016 47.31835938 C132.51036346 48.59169632 132.50656677 49.86503326 132.50265503 51.17695618 C132.49295442 54.67086087 132.5082733 58.16425524 132.52856112 61.65809822 C132.54611805 65.31222079 132.5426073 68.96632726 132.5418396 72.6204834 C132.54371317 78.7573298 132.56108433 84.89397851 132.58837891 91.03076172 C132.61983038 98.12844047 132.63037513 105.22590267 132.6289078 112.32364607 C132.62768747 119.1479083 132.63789621 125.97209992 132.65449142 132.79634094 C132.661557 135.70217947 132.66521791 138.60799302 132.66627884 141.51383972 C132.66865926 145.56987757 132.68807617 149.62565858 132.70947266 153.68164062 C132.70856628 154.89108841 132.70765991 156.10053619 132.70672607 157.34663391 C132.71525604 158.44867661 132.72378601 159.5507193 132.73257446 160.68615723 C132.73592615 161.64553444 132.73927784 162.60491165 132.74273109 163.5933609 C132.84011324 166.26187852 132.84011324 166.26187852 135 169 C137.45709375 169.58350505 137.45709375 169.58350505 140 169 C142.93063343 165.96965221 143.37495886 163.7885077 143.3742218 159.64183044 C143.38123611 158.55524139 143.38825043 157.46865234 143.39547729 156.34913635 C143.38783356 155.16198532 143.38018982 153.97483429 143.37231445 152.75170898 C143.37596512 151.49773315 143.37961578 150.24375732 143.38337708 148.95178223 C143.39009455 145.51577865 143.38336887 142.0803165 143.37004495 138.64436603 C143.35872506 135.04896679 143.36283831 131.45358149 143.36479187 127.85816956 C143.36567456 121.82149598 143.35459873 115.78493475 143.33618164 109.74829102 C143.31500477 102.76704338 143.3115063 95.78596022 143.3177436 88.80468696 C143.32343584 82.08988804 143.31779388 75.37514709 143.30657005 68.66035652 C143.30192318 65.80196118 143.30105058 62.94360127 143.3031559 60.08520317 C143.30538718 56.09637182 143.29093843 52.10769732 143.2746582 48.11889648 C143.27713562 46.92972122 143.27961304 45.74054596 143.28216553 44.51533508 C143.27508072 43.43156586 143.26799591 42.34779663 143.26069641 41.23118591 C143.25864354 40.28785621 143.25659067 39.3445265 143.25447559 38.37261105 C143.15652104 35.73341073 143.15652104 35.73341073 141 33 C138.35581465 31.76604684 137.4775899 31.73641144 134.89809227 33.16007233 Z " fill="#56CE1B" transform="translate(164,179)"/>
<path d="M0 0 C1.15406644 -0.00384115 2.30813289 -0.00768229 3.49717104 -0.01163983 C5.38469672 -0.01034011 5.38469672 -0.01034011 7.31035423 -0.00901413 C8.66816523 -0.01159969 10.02597546 -0.01461339 11.38378465 -0.01801753 C15.10958439 -0.02606837 18.83536484 -0.02787603 22.56117225 -0.028615 C26.581789 -0.0304689 30.60239583 -0.03801796 34.62300682 -0.04475021 C43.41243176 -0.05832062 52.20185213 -0.06435629 60.9912858 -0.06876087 C66.48204615 -0.07152558 71.97280475 -0.07576336 77.46356392 -0.08026505 C92.67321283 -0.09245622 107.88286034 -0.10275571 123.09251404 -0.10614014 C124.06559628 -0.1063597 125.03867852 -0.10657927 126.04124811 -0.10680549 C127.01662683 -0.10702377 127.99200555 -0.10724204 128.99694121 -0.10746694 C130.97335029 -0.1079104 132.94975936 -0.10835696 134.92616844 -0.10880661 C135.90653058 -0.10902804 136.88689272 -0.10924947 137.89696281 -0.10947761 C153.7767513 -0.11342431 169.65649386 -0.1308751 185.53626461 -0.15416613 C201.84937335 -0.17789912 218.16245906 -0.19034288 234.47558534 -0.19150805 C243.63090795 -0.19242374 252.78617073 -0.19814918 261.94147682 -0.21632767 C269.73853795 -0.23175497 277.53552074 -0.23683364 285.33259423 -0.22858956 C289.30775466 -0.22469231 293.28275746 -0.22556723 297.25789833 -0.23964691 C300.90371177 -0.25244155 304.54925004 -0.25114002 308.1950634 -0.2390562 C310.12450984 -0.23619288 312.0539613 -0.2479927 313.98336947 -0.26047826 C331.01717427 -0.16451444 345.3234808 5.19388043 357.44228172 17.20174026 C367.79623081 28.43974578 373.95756424 43.46615758 373.38368797 58.89705276 C371.41314101 77.07693765 363.78362742 91.2796757 349.76650047 102.94392776 C336.18273183 112.97793108 320.4162347 114.96127835 304.02431297 112.70174026 C288.32243417 108.92769818 275.86887949 100.13871624 267.18837547 86.65095901 C261.60654157 77.42557024 259.58593001 67.57572718 258.50087547 57.01814651 C258.4552113 54.24036028 258.4552113 54.24036028 257.14150047 53.13142776 C254.61214795 53.03368084 252.1101263 53.00147366 249.58032799 53.01117325 C248.7790973 53.01031882 247.97786661 53.0094644 247.15235621 53.00858408 C244.44681114 53.00692683 241.74132702 53.01245463 239.03578758 53.01790237 C237.10463017 53.01818422 235.17347264 53.01802657 233.24231529 53.01745987 C227.98220238 53.01717179 222.72211206 53.02307019 217.46200442 53.03003383 C211.97134626 53.03626564 206.48068763 53.03687103 200.99002647 53.03805923 C190.58484356 53.04117306 180.1796711 53.04938714 169.7744928 53.05940872 C157.93189101 53.07056827 146.08928874 53.07607991 134.246683 53.08110416 C109.87828302 53.09156971 85.50989233 53.10917014 61.14150047 53.13142776 C61.0066877 53.80626205 60.87187492 54.48109634 60.73297691 55.17638016 C60.46569534 56.51368683 60.46569534 56.51368683 60.19301414 57.8780098 C59.92891998 59.19963623 59.92891998 59.19963623 59.65949059 60.54796219 C59.40308548 61.82677765 59.40308548 61.82677765 59.14150047 63.13142776 C59.00162209 63.830009 58.8617437 64.52859024 58.71762657 65.24834061 C55.3213816 81.68706203 48.05232449 95.06863806 33.81728172 104.52986526 C19.84798365 112.89105097 5.22970835 115.24836765 -10.78428078 112.44392776 C-25.61755769 108.55323218 -37.9289172 99.67056832 -46.32724953 86.77595901 C-54.62714715 72.44169704 -56.59377408 57.22868238 -52.85849953 41.13142776 C-47.89409135 25.10293161 -37.50303197 13.05323525 -22.85849953 5.13142776 C-15.33898756 1.82603804 -8.2429512 0.01034018 0 0 Z M-25.58115578 35.20174026 C-31.48332446 43.52568332 -34.11309831 51.91138147 -32.85849953 62.13142776 C-30.16956085 73.26697606 -24.73609754 80.26705734 -15.42099953 86.68611526 C-7.37263069 91.22559159 2.94014413 91.61513337 11.86806297 89.47908401 C14.14190238 88.54303351 16.08340956 87.47556854 18.14150047 86.13142776 C19.29392235 85.40246292 19.29392235 85.40246292 20.46962547 84.65877151 C27.47658612 79.75157888 32.13167962 73.32534204 34.51650047 65.06892776 C36.17976221 54.5903788 34.85152576 45.91150171 29.01650047 36.88142776 C25.40580305 32.03929249 21.45368925 28.94540189 16.14150047 26.13142776 C15.52790672 25.79240433 14.91431297 25.45338089 14.28212547 25.10408401 C0.66701796 18.79109613 -16.26863418 24.00982088 -25.58115578 35.20174026 Z M289.14150047 36.13142776 C283.08799371 45.73928712 281.46471031 55.83811426 283.71962547 66.99080276 C286.900586 76.07099919 294.06247646 84.00791777 302.70009422 88.22908401 C312.11663935 91.7094391 321.20942176 91.93351802 330.54775047 88.15877151 C339.09348622 83.84200431 345.78387362 77.16097795 349.14150047 68.13142776 C351.77058239 59.99548509 351.24424565 49.16681234 347.59071922 41.47517776 C341.74564963 32.02223503 334.58468871 26.61249051 324.14150047 23.13142776 C309.39934049 22.04140139 299.16420954 24.68705784 289.14150047 36.13142776 Z " fill="#56CF1B" transform="translate(96.85849952697754,36.86857223510742)"/>
<path d="M0 0 C60.06 0 120.12 0 182 0 C183.98 8.91 183.98 8.91 186 18 C189.80897808 26.11749427 193.43910496 33.20070211 199.75 39.58203125 C201 41 201 41 201 43 C201.86818359 43.40412109 201.86818359 43.40412109 202.75390625 43.81640625 C205.02440285 45.01285924 206.9143634 46.36305904 208.9375 47.9375 C211.85983238 50.17158214 214.78780959 52.19314289 218 54 C216.70521746 57.72249979 215.24365373 60.23451265 212.5 63.0625 C211.8915625 63.71347656 211.283125 64.36445313 210.65625 65.03515625 C200.54987204 72.51090348 189.35929222 71.56973516 177.36303711 71.51757812 C175.26781224 71.52300389 173.17259119 71.5301291 171.07737732 71.53881836 C165.40802872 71.55699925 159.73897242 71.55000601 154.06961894 71.53730202 C148.12677288 71.5271486 142.18395121 71.53657407 136.24110413 71.54284668 C126.26379927 71.55011568 116.28661301 71.54055433 106.30932617 71.52148438 C94.7848606 71.4997112 83.26067807 71.50677339 71.73621935 71.52879 C61.82850347 71.5469581 51.92087266 71.54949557 42.01314551 71.53903532 C36.10133162 71.53280895 30.18965066 71.53194141 24.27784538 71.54518127 C18.72007725 71.55675979 13.16267315 71.54867715 7.60494423 71.52560425 C5.56883727 71.52032815 3.53269952 71.52181203 1.49660492 71.53065491 C-1.28958401 71.54163731 -4.07461711 71.52781447 -6.86073303 71.50793457 C-8.06017228 71.5213189 -8.06017228 71.5213189 -9.28384262 71.53497362 C-16.93245631 71.42960819 -23.73258029 68.73768918 -29.375 63.5 C-30.00148437 62.9328125 -30.62796875 62.365625 -31.2734375 61.78125 C-36 56.90497738 -36 56.90497738 -36 54 C-34.37824382 52.87013678 -32.69953157 51.82159687 -31 50.8125 C-17.80333673 42.58996366 -10.16556502 32.24930582 -4 18 C-2.68 12.06 -1.36 6.12 0 0 Z " fill="#56CE1C" transform="translate(165,98)"/>
<path d="M0 0 C1.04729163 -0.00384115 2.09458325 -0.00768229 3.17361099 -0.01163983 C4.32806423 -0.01077335 5.48251748 -0.00990687 6.67195415 -0.00901413 C7.89534974 -0.01198525 9.11874533 -0.01495637 10.37921351 -0.01801753 C13.78133941 -0.02520604 17.18341482 -0.02787748 20.58554471 -0.028615 C24.25231342 -0.03046434 27.91907117 -0.03801106 31.58583355 -0.04475021 C39.60646261 -0.05833882 47.62708668 -0.06435903 55.64772534 -0.06876087 C60.65448726 -0.07152232 65.66124724 -0.07575948 70.66800785 -0.08026505 C84.5264556 -0.09245824 98.3849018 -0.10275756 112.2433548 -0.10614014 C113.13052344 -0.1063597 114.01769208 -0.10657927 114.93174462 -0.10680549 C116.26570563 -0.10713291 116.26570563 -0.10713291 117.62661535 -0.10746694 C119.42873085 -0.1079104 121.23084635 -0.10835697 123.03296185 -0.10880661 C123.92687591 -0.10902804 124.82078997 -0.10924947 125.74179234 -0.10947761 C140.22905725 -0.11342631 154.71627188 -0.13088231 169.20351736 -0.15416613 C184.07234648 -0.17787063 198.94115036 -0.19034157 213.80999869 -0.19150805 C222.16034157 -0.19242531 230.51061894 -0.19819022 238.86094379 -0.21632767 C245.97094459 -0.23171648 253.08085962 -0.23685634 260.1908739 -0.22858956 C263.81895508 -0.22467875 267.44686351 -0.2256335 271.07492352 -0.23964691 C275.00732569 -0.25469705 278.93948379 -0.24653207 282.87190533 -0.23606491 C284.01966641 -0.24412132 285.16742749 -0.25217772 286.34996921 -0.26047826 C292.94027874 -0.2193177 297.77273981 0.18917877 302.82568645 4.85017776 C303.30392864 5.43799026 303.78217083 6.02580276 304.2749052 6.63142776 C304.76603802 7.21924026 305.25717083 7.80705276 305.76318645 8.41267776 C309.29475691 13.47421197 308.44150746 20.26416108 307.9624052 26.13142776 C306.78246695 30.85869633 304.5827831 34.03189826 300.57948589 36.81049538 C295.12506531 40.05680095 289.79050337 39.82668573 283.58911419 39.76634598 C282.3546905 39.77414593 281.12026682 39.78194588 279.84843636 39.7899822 C276.43819085 39.80642958 273.02932993 39.80057426 269.61916971 39.78505111 C265.93536713 39.77371212 262.25168327 39.79121287 258.56790447 39.80495071 C251.35788748 39.82716064 244.14813103 39.82239204 236.93810391 39.80788751 C231.07735735 39.79658638 225.21668371 39.79506814 219.35592937 39.80050659 C218.52116398 39.80127276 217.68639859 39.80203892 216.82633728 39.8028283 C215.13042138 39.80442696 213.4345055 39.80604803 211.73858964 39.80769126 C195.84341209 39.82194218 179.94837881 39.80556638 164.05322492 39.77868943 C150.42034038 39.75635122 136.78766872 39.76023154 123.15478802 39.78328323 C107.31572402 39.81005288 91.47678641 39.82056894 75.63770294 39.80522192 C73.94809566 39.8036292 72.25848836 39.80205735 70.56888103 39.80050659 C69.73760533 39.79973521 68.90632963 39.79896384 68.04986376 39.79816908 C62.19750901 39.79385557 56.34523457 39.8011311 50.49289227 39.81290436 C43.35883727 39.82694085 36.22505727 39.82310542 29.0910337 39.79650064 C25.45245435 39.78337768 21.81433316 39.77818349 18.17575741 39.7947464 C14.22881238 39.81244102 10.28261432 39.79128537 6.33569622 39.76634598 C5.18938952 39.77749959 4.04308283 39.78865319 2.86203957 39.80014479 C-4.01622932 39.71577452 -8.7672541 38.72284475 -14.0375948 34.13142776 C-18.6917333 28.66281502 -18.47895319 23.56077632 -18.47118855 16.53377151 C-17.78095188 11.11759013 -15.76969816 7.26215221 -11.5375948 3.81892776 C-10.9497823 3.32779495 -10.3619698 2.83666214 -9.7563448 2.33064651 C-6.5697712 0.10728721 -3.75810692 0.00516516 0 0 Z " fill="#56CE1C" transform="translate(111.03759479522705,435.8685722351074)"/>
<path d="M0 0 C0.86070372 -0.00453111 1.72140745 -0.00906223 2.6081931 -0.01373065 C5.47364815 -0.02632545 8.33891193 -0.02475747 11.20439148 -0.02310181 C13.26651756 -0.0290901 15.32864141 -0.03589634 17.39076233 -0.04345703 C22.97970395 -0.0610929 28.56858429 -0.06581138 34.15755105 -0.0670886 C37.65260912 -0.06851205 41.1476517 -0.07278532 44.64270592 -0.07808304 C56.84508119 -0.09657488 69.04741282 -0.10475465 81.24980164 -0.10317993 C92.60943761 -0.10197856 103.96888358 -0.12308233 115.32847148 -0.15466726 C125.09433804 -0.18084961 134.8601426 -0.19154641 144.62604398 -0.19026911 C150.45301734 -0.18976009 156.27982174 -0.19541071 162.10676003 -0.21662521 C167.588968 -0.23604064 173.0708464 -0.2361093 178.55306625 -0.22159195 C180.55931647 -0.21950692 182.56558749 -0.22418642 184.57180214 -0.23631287 C196.10480553 -0.30148103 205.66749158 -0.02784189 215.91410828 5.89242554 C225.52248801 16.32438068 225.10160828 24.7203818 225.10160828 39.26742554 C139.96160828 39.26742554 54.82160828 39.26742554 -32.89839172 39.26742554 C-32.89839172 18.83885411 -32.89839172 18.83885411 -27.14839172 9.39242554 C-19.24608394 1.92913485 -10.59851087 -0.0415419 0 0 Z " fill="#56CE1C" transform="translate(159.8983917236328,386.7325744628906)"/>
<path d="M0 0 C5.18926848 5.47756117 7.56365451 11.34043903 7.875 18.875 C7.54856195 26.16831331 5.60924516 32.05714185 0.34765625 37.25390625 C-5.68133602 42.05627054 -11.4105578 43.88775934 -19.09765625 43.6796875 C-25.90464206 42.89773626 -31.11817616 40.51044992 -35.75 35.4375 C-40.59964336 29.2445282 -42.17321236 22.91437953 -41.57421875 15.07421875 C-40.40865131 8.25741526 -37.19323744 3.04350901 -31.71875 -1.19921875 C-20.81476019 -8.29901809 -10.74444334 -6.34898925 0 0 Z " fill="#56CF1B" transform="translate(114.75,74.625)"/>
<path d="M0 0 C5.68756599 5.00391866 9.4993276 9.83984415 10.2421875 17.49609375 C10.61264458 25.35196296 9.30643984 31.36103395 3.94140625 37.265625 C-2.72128867 43.51260371 -8.08371279 45.52712777 -17.19140625 45.3046875 C-23.74226736 44.59402385 -28.3833127 42.02359236 -32.875 37.25 C-37.45623915 31.49953509 -39.65871528 25.75719456 -39.33984375 18.359375 C-38.23839293 10.71252101 -35.21822041 5.17252857 -29.13671875 0.40625 C-19.85736428 -5.70082059 -9.55060291 -5.74875777 0 0 Z " fill="#56CF1B" transform="translate(428,73)"/>
</svg>
